# xmcd CD database file
#
# Track frame offsets:
#	150
#	19995
#	48238
#	73517
#	95672
#	118921
#	143118
#	163830
#	189275
#
# Disc length: 2751 seconds
#
# Revision: 0
# Processed by: cddbd v1.5.1PL0 Copyright (c) Steve Scherf et al.
# Submitted via: CDex 1.51
#
DISCID=7d0abd09
DTITLE=Jeff Haas Trio and Friends - Jazz at Sunset
DYEAR=2003
DGENRE=Jazz
TTITLE0=Interplay
TTITLE1=Dindi
TTITLE2=My Foolish Heart
TTITLE3=What is this thing called Love
TTITLE4=Body and Soul
TTITLE5=On Green Dolphin Street
TTITLE6=What's New
TTITLE7=Well You Needn't
TTITLE8=Contemplating the Arrival
EXTD=YEAR: 2003
EXTT0=
EXTT1=
EXTT2=
EXTT3=
EXTT4=
EXTT5=
EXTT6=
EXTT7=
EXTT8=
PLAYORDER=
